<svg xmlns="http://www.w3.org/2000/svg" xmlns:xlink="http://www.w3.org/1999/xlink" version="1.1" width="50" height="50" viewBox="0 0 256 256" xml:space="preserve">
<g style="stroke: none; stroke-width: 0; stroke-dasharray: none; stroke-linecap: butt; stroke-linejoin: miter; stroke-miterlimit: 10; fill: none; fill-rule: nonzero; opacity: 1;" transform="translate(1.4065934065934016 1.4065934065934016) scale(2.81 2.81)">
	<path d="M 15.313 89.769 c -0.481 0 -0.962 -0.097 -1.419 -0.29 c -0.894 -0.38 -1.586 -1.084 -1.95 -1.984 L 0.267 58.615 c -0.364 -0.9 -0.355 -1.888 0.024 -2.782 c 0.379 -0.894 1.084 -1.586 1.984 -1.949 l 11.647 -4.71 c 1.859 -0.749 3.982 0.149 4.733 2.007 l 11.677 28.881 c 0.364 0.9 0.355 1.888 -0.024 2.782 c -0.379 0.894 -1.084 1.586 -1.984 1.949 l -11.647 4.709 C 16.236 89.68 15.774 89.769 15.313 89.769 z M 15.282 50.909 c -0.204 0 -0.411 0.038 -0.611 0.118 l -11.647 4.71 c -0.405 0.164 -0.722 0.476 -0.893 0.877 c -0.17 0.402 -0.174 0.847 -0.01 1.251 l 11.677 28.88 c 0.164 0.405 0.475 0.723 0.877 0.893 c 0.402 0.171 0.847 0.175 1.251 0.011 l 11.648 -4.709 c 0.405 -0.164 0.721 -0.476 0.892 -0.877 c 0.17 -0.402 0.174 -0.847 0.01 -1.251 L 16.8 51.93 C 16.543 51.294 15.929 50.909 15.282 50.909 z" style="stroke: none; stroke-width: 1; stroke-dasharray: none; stroke-linecap: butt; stroke-linejoin: miter; stroke-miterlimit: 10; fill: rgb(0,0,0); fill-rule: nonzero; opacity: 1;" transform=" matrix(1 0 0 1 0 0) " stroke-linecap="round"/>
	<path d="M 36.01 46.884 c -0.73 0 -1.456 -0.229 -2.076 -0.68 c -1.097 -0.797 -1.637 -2.123 -1.408 -3.46 l 2.004 -11.688 c 0.086 -0.499 -0.079 -1.008 -0.441 -1.361 l -8.492 -8.278 c -0.971 -0.947 -1.314 -2.337 -0.895 -3.627 c 0.419 -1.29 1.514 -2.213 2.857 -2.408 l 11.735 -1.705 c 0.501 -0.073 0.933 -0.387 1.157 -0.841 L 45.7 2.203 c 0.6 -1.217 1.815 -1.972 3.172 -1.972 s 2.572 0.755 3.172 1.972 l 5.248 10.634 c 0.225 0.454 0.657 0.769 1.158 0.841 l 11.735 1.705 c 1.343 0.195 2.438 1.118 2.857 2.408 s 0.076 2.68 -0.895 3.627 l -8.492 8.278 c -0.362 0.353 -0.528 0.862 -0.442 1.36 l 2.005 11.688 c 0.229 1.337 -0.31 2.663 -1.407 3.46 c -1.098 0.799 -2.527 0.899 -3.726 0.27 l -10.497 -5.518 c -0.447 -0.235 -0.982 -0.235 -1.43 0 L 37.66 46.474 C 37.137 46.748 36.572 46.884 36.01 46.884 z M 48.872 2.231 c -0.599 0 -1.114 0.32 -1.379 0.857 l -5.249 10.634 c -0.515 1.045 -1.511 1.769 -2.664 1.936 l -11.735 1.705 c -0.592 0.086 -1.056 0.477 -1.241 1.046 s -0.04 1.159 0.389 1.576 l 8.492 8.278 c 0.834 0.814 1.214 1.984 1.017 3.132 l -2.004 11.687 c -0.102 0.59 0.127 1.152 0.612 1.504 c 0.484 0.352 1.089 0.395 1.619 0.117 l 10.497 -5.518 c 1.029 -0.542 2.261 -0.542 3.292 0 l 10.496 5.518 c 0.528 0.279 1.136 0.234 1.619 -0.117 c 0.484 -0.352 0.713 -0.914 0.612 -1.504 l -2.005 -11.688 c -0.197 -1.147 0.183 -2.317 1.017 -3.131 l 8.492 -8.278 c 0.429 -0.417 0.574 -1.007 0.389 -1.576 c -0.185 -0.569 -0.648 -0.96 -1.241 -1.046 l -11.735 -1.705 c -1.152 -0.167 -2.149 -0.891 -2.664 -1.936 L 50.251 3.088 C 49.986 2.551 49.471 2.231 48.872 2.231 z" style="stroke: none; stroke-width: 1; stroke-dasharray: none; stroke-linecap: butt; stroke-linejoin: miter; stroke-miterlimit: 10; fill: rgb(0,0,0); fill-rule: nonzero; opacity: 1;" transform=" matrix(1 0 0 1 0 0) " stroke-linecap="round"/>
	<path d="M 45.487 81.822 c -3.235 0 -6.374 -0.946 -9.411 -1.861 c -2.656 -0.803 -5.378 -1.624 -8.021 -1.75 l 0.096 -1.998 c 2.89 0.138 5.731 0.996 8.479 1.826 c 2.968 0.894 6.001 1.822 9.003 1.782 c 0.336 -0.003 0.671 -0.019 1.008 -0.046 c 4.11 -0.043 12.766 -5.451 21.93 -11.176 c 5.885 -3.677 11.97 -7.48 17.71 -10.452 c 1.473 -0.763 2.118 -2.575 1.47 -4.128 c -0.613 -1.473 -2.19 -2.277 -3.742 -1.919 l -23.022 5.423 l -0.394 -0.511 c -1.529 -1.982 -4.157 -4.525 -9.253 -3.742 l -14.982 2.434 c -2.644 0.207 -4.885 -0.645 -7.05 -1.468 c -2.206 -0.841 -4.49 -1.707 -7.103 -1.484 l -4.171 0.352 l -0.168 -1.992 l 4.17 -0.352 c 3.069 -0.262 5.681 0.73 7.984 1.607 c 2.049 0.779 3.983 1.516 6.101 1.353 l 14.907 -2.425 c 4.407 -0.678 7.926 0.627 10.742 3.989 l 21.785 -5.132 c 2.513 -0.579 5.052 0.722 6.043 3.097 c 1.047 2.505 -0.006 5.438 -2.396 6.674 c -5.667 2.937 -11.718 6.717 -17.57 10.372 c -9.818 6.135 -18.297 11.432 -22.897 11.477 c -0.313 0.029 -0.698 0.047 -1.083 0.05 C 45.595 81.822 45.541 81.822 45.487 81.822 z" style="stroke: none; stroke-width: 1; stroke-dasharray: none; stroke-linecap: butt; stroke-linejoin: miter; stroke-miterlimit: 10; fill: rgb(0,0,0); fill-rule: nonzero; opacity: 1;" transform=" matrix(1 0 0 1 0 0) " stroke-linecap="round"/>
	<path d="M 42.448 66.918 c -0.438 0 -0.841 -0.29 -0.963 -0.733 c -0.147 -0.532 0.165 -1.083 0.697 -1.231 l 1.534 -0.423 c 6.884 -1.898 16.313 -4.495 17.081 -6.816 c 0.033 -0.102 0.103 -0.311 -0.201 -0.698 c -0.34 -0.436 -0.263 -1.064 0.172 -1.404 c 0.438 -0.341 1.064 -0.262 1.404 0.172 c 0.795 1.018 0.724 1.953 0.523 2.558 c -1.026 3.105 -7.971 5.23 -18.448 8.116 l -1.531 0.423 C 42.627 66.906 42.537 66.918 42.448 66.918 z" style="stroke: none; stroke-width: 1; stroke-dasharray: none; stroke-linecap: butt; stroke-linejoin: miter; stroke-miterlimit: 10; fill: rgb(0,0,0); fill-rule: nonzero; opacity: 1;" transform=" matrix(1 0 0 1 0 0) " stroke-linecap="round"/>
</g>
</svg>
