<svg xmlns="http://www.w3.org/2000/svg" xmlns:xlink="http://www.w3.org/1999/xlink" version="1.1" width="50" height="50" viewBox="0 0 256 256" xml:space="preserve">
<g style="stroke: none; stroke-width: 0; stroke-dasharray: none; stroke-linecap: butt; stroke-linejoin: miter; stroke-miterlimit: 10; fill: none; fill-rule: nonzero; opacity: 1;" transform="translate(1.4065934065934016 1.4065934065934016) scale(2.81 2.81)">
	<path d="M 45 71.471 c -1.791 0 -3.583 -0.652 -4.979 -1.957 c -1.388 -1.297 -3.379 -1.75 -5.19 -1.185 c -3.65 1.141 -7.589 -0.759 -8.972 -4.32 c -0.688 -1.772 -2.283 -3.043 -4.163 -3.321 c -3.78 -0.556 -6.507 -3.975 -6.208 -7.785 c 0.148 -1.894 -0.737 -3.732 -2.31 -4.797 c -3.164 -2.141 -4.138 -6.405 -2.216 -9.708 c 0.956 -1.642 0.956 -3.682 0 -5.324 c -1.922 -3.303 -0.949 -7.567 2.216 -9.708 c 1.573 -1.065 2.459 -2.903 2.31 -4.797 c -0.299 -3.809 2.428 -7.229 6.209 -7.785 c 1.88 -0.277 3.475 -1.549 4.163 -3.32 c 1.383 -3.561 5.326 -5.456 8.971 -4.32 c 1.815 0.568 3.803 0.112 5.191 -1.185 c 2.793 -2.609 7.169 -2.608 9.958 0 l 0 0 c 1.388 1.297 3.375 1.751 5.191 1.185 c 3.643 -1.135 7.588 0.759 8.972 4.32 c 0.689 1.771 2.283 3.043 4.163 3.32 c 3.781 0.556 6.507 3.976 6.209 7.785 c -0.148 1.894 0.736 3.732 2.31 4.797 c 3.165 2.141 4.138 6.405 2.216 9.708 c -0.956 1.642 -0.956 3.682 0 5.324 c 1.922 3.302 0.949 7.566 -2.216 9.708 c -1.573 1.066 -2.458 2.904 -2.31 4.797 c 0.299 3.81 -2.428 7.229 -6.209 7.785 c -1.879 0.277 -3.475 1.55 -4.163 3.321 c -1.383 3.562 -5.324 5.46 -8.971 4.32 c -1.817 -0.566 -3.802 -0.112 -5.191 1.185 C 48.583 70.819 46.792 71.471 45 71.471 z M 36.401 66.09 c 1.824 0 3.616 0.685 4.985 1.963 c 2.027 1.893 5.202 1.893 7.227 0 c 1.912 -1.787 4.654 -2.414 7.152 -1.632 c 2.648 0.827 5.506 -0.552 6.51 -3.136 c 0.949 -2.44 3.147 -4.193 5.737 -4.575 c 2.743 -0.403 4.722 -2.885 4.505 -5.65 c -0.204 -2.609 1.015 -5.141 3.183 -6.61 c 2.297 -1.554 3.003 -4.648 1.609 -7.045 c -1.317 -2.263 -1.317 -5.074 0 -7.336 c 1.395 -2.397 0.689 -5.491 -1.609 -7.046 c -2.167 -1.467 -3.387 -4 -3.183 -6.61 c 0.217 -2.764 -1.762 -5.246 -4.505 -5.65 c -2.589 -0.381 -4.788 -2.134 -5.736 -4.574 c -1.005 -2.585 -3.867 -3.96 -6.511 -3.136 c -2.497 0.781 -5.239 0.155 -7.152 -1.633 c -2.027 -1.893 -5.201 -1.893 -7.227 0 c -1.913 1.787 -4.653 2.414 -7.153 1.632 c -2.648 -0.828 -5.506 0.55 -6.51 3.136 c -0.948 2.44 -3.146 4.193 -5.736 4.574 c -2.743 0.404 -4.722 2.886 -4.505 5.65 c 0.204 2.611 -1.016 5.143 -3.183 6.61 c -2.297 1.554 -3.003 4.649 -1.608 7.046 c 1.317 2.262 1.317 5.073 0 7.336 c -1.395 2.397 -0.689 5.491 1.608 7.045 c 2.168 1.468 3.388 4 3.183 6.61 c -0.217 2.765 1.762 5.247 4.505 5.65 c 2.591 0.382 4.789 2.135 5.736 4.575 c 1.004 2.584 3.864 3.962 6.511 3.136 C 34.945 66.198 35.676 66.09 36.401 66.09 z" style="stroke: none; stroke-width: 1; stroke-dasharray: none; stroke-linecap: butt; stroke-linejoin: miter; stroke-miterlimit: 10; fill: rgb(0,0,0); fill-rule: nonzero; opacity: 1;" transform=" matrix(1 0 0 1 0 0) " stroke-linecap="round"/>
	<path d="M 45 60.712 c -13.771 0 -24.975 -11.203 -24.975 -24.975 c 0 -13.771 11.204 -24.975 24.975 -24.975 c 13.771 0 24.975 11.204 24.975 24.975 C 69.975 49.508 58.771 60.712 45 60.712 z M 45 12.762 c -12.668 0 -22.975 10.306 -22.975 22.974 c 0 12.668 10.307 22.974 22.975 22.974 s 22.975 -10.307 22.975 -22.974 C 67.975 23.069 57.668 12.762 45 12.762 z" style="stroke: none; stroke-width: 1; stroke-dasharray: none; stroke-linecap: butt; stroke-linejoin: miter; stroke-miterlimit: 10; fill: rgb(0,0,0); fill-rule: nonzero; opacity: 1;" transform=" matrix(1 0 0 1 0 0) " stroke-linecap="round"/>
	<path d="M 40.845 48.365 c -0.841 0 -1.681 -0.319 -2.321 -0.959 l -7.816 -7.816 c -1.866 -1.866 -1.866 -4.903 0 -6.77 c 1.866 -1.866 4.903 -1.866 6.77 0 l 2.461 2.461 c 0.485 0.485 1.33 0.484 1.814 0 l 10.77 -10.771 c 0.904 -0.904 2.107 -1.402 3.385 -1.402 c 1.279 0 2.481 0.498 3.385 1.402 l 0 0 l 0 0 c 0.904 0.904 1.402 2.106 1.402 3.385 c 0 1.278 -0.497 2.481 -1.402 3.385 L 43.166 47.406 C 42.526 48.045 41.685 48.365 40.845 48.365 z M 34.093 33.419 c -0.714 0 -1.427 0.272 -1.971 0.815 c -1.086 1.087 -1.087 2.855 0 3.941 l 7.816 7.816 c 0.5 0.5 1.314 0.501 1.815 0 l 16.126 -16.126 c 1.086 -1.087 1.086 -2.854 0 -3.941 l 0 0 c -1.053 -1.053 -2.888 -1.054 -3.942 0 l -10.77 10.771 c -1.24 1.24 -3.403 1.24 -4.643 0 l -2.46 -2.461 C 35.52 33.691 34.806 33.419 34.093 33.419 z" style="stroke: none; stroke-width: 1; stroke-dasharray: none; stroke-linecap: butt; stroke-linejoin: miter; stroke-miterlimit: 10; fill: rgb(0,0,0); fill-rule: nonzero; opacity: 1;" transform=" matrix(1 0 0 1 0 0) " stroke-linecap="round"/>
	<path d="M 62.685 90.003 c -0.5 0 -1.001 -0.104 -1.475 -0.312 l -13.16 -5.786 c -1.94 -0.852 -4.162 -0.852 -6.101 0 l -13.16 5.786 c -1.135 0.499 -2.434 0.392 -3.474 -0.286 c -1.039 -0.678 -1.659 -1.824 -1.659 -3.065 V 60.872 h 2 v 25.469 c 0 0.571 0.274 1.078 0.753 1.39 c 0.477 0.312 1.052 0.361 1.576 0.13 l 13.16 -5.785 c 2.45 -1.078 5.263 -1.078 7.711 0 l 13.16 5.786 c 0.524 0.23 1.098 0.183 1.575 -0.131 c 0.479 -0.312 0.753 -0.818 0.753 -1.39 V 60.872 h 2 v 25.469 c 0 1.24 -0.62 2.387 -1.659 3.065 C 64.078 89.802 63.384 90.003 62.685 90.003 z" style="stroke: none; stroke-width: 1; stroke-dasharray: none; stroke-linecap: butt; stroke-linejoin: miter; stroke-miterlimit: 10; fill: rgb(0,0,0); fill-rule: nonzero; opacity: 1;" transform=" matrix(1 0 0 1 0 0) " stroke-linecap="round"/>
</g>
</svg>
