<svg xmlns="http://www.w3.org/2000/svg" xmlns:xlink="http://www.w3.org/1999/xlink" version="1.1" width="256" height="256" viewBox="0 0 256 256" xml:space="preserve">
<g style="stroke: none; stroke-width: 0; stroke-dasharray: none; stroke-linecap: butt; stroke-linejoin: miter; stroke-miterlimit: 10; fill: none; fill-rule: nonzero; opacity: 1;" transform="translate(1.4065934065934016 1.4065934065934016) scale(2.81 2.81)">
	<path d="M 72.263 2.86 H 17.737 C 7.957 2.86 0 10.817 0 20.598 v 34.714 c 0 8.759 6.38 16.055 14.737 17.483 V 84.14 c 0 1.222 0.741 2.322 1.874 2.78 c 0.365 0.148 0.747 0.22 1.126 0.22 c 0.796 0 1.579 -0.317 2.155 -0.912 l 12.772 -13.179 h 7.242 c 1.657 0 3 -1.343 3 -3 s -1.343 -3 -3 -3 h -8.512 c -0.812 0 -1.589 0.329 -2.154 0.912 l -8.501 8.772 v -6.685 c 0 -1.657 -1.343 -3 -3 -3 C 11.265 67.049 6 61.783 6 55.312 V 20.598 C 6 14.125 11.265 8.86 17.737 8.86 h 54.525 C 78.734 8.86 84 14.125 84 20.598 v 34.714 c 0 6.182 -4.808 11.252 -10.88 11.694 c -1.253 -3.486 -4.583 -5.99 -8.494 -5.99 h -5.762 c -4.98 0 -9.033 4.053 -9.033 9.033 s 4.053 9.033 9.033 9.033 h 5.762 c 3.945 0 7.299 -2.546 8.527 -6.078 C 82.518 72.536 90 64.791 90 55.312 V 20.598 C 90 10.817 82.043 2.86 72.263 2.86 z" style="stroke: none; stroke-width: 1; stroke-dasharray: none; stroke-linecap: butt; stroke-linejoin: miter; stroke-miterlimit: 10; fill: rgb(0,0,0); fill-rule: nonzero; opacity: 1;" transform=" matrix(1 0 0 1 0 0) " stroke-linecap="round"/>
	<path d="M 28.972 43.531 c -1.045 1.285 -0.851 3.175 0.434 4.221 C 34.507 51.9 39.753 53.976 45 53.976 c 5.247 0 10.493 -2.075 15.594 -6.224 c 1.285 -1.046 1.479 -2.936 0.434 -4.221 c -1.045 -1.285 -2.935 -1.48 -4.221 -0.434 c -8.055 6.553 -15.559 6.554 -23.614 0 C 31.908 42.052 30.018 42.247 28.972 43.531 z" style="stroke: none; stroke-width: 1; stroke-dasharray: none; stroke-linecap: butt; stroke-linejoin: miter; stroke-miterlimit: 10; fill: rgb(0,0,0); fill-rule: nonzero; opacity: 1;" transform=" matrix(1 0 0 1 0 0) " stroke-linecap="round"/>
	<path d="M 35.866 35.635 c 1.657 0 3 -1.343 3 -3 v -4.958 c 0 -1.657 -1.343 -3 -3 -3 s -3 1.343 -3 3 v 4.958 C 32.866 34.292 34.209 35.635 35.866 35.635 z" style="stroke: none; stroke-width: 1; stroke-dasharray: none; stroke-linecap: butt; stroke-linejoin: miter; stroke-miterlimit: 10; fill: rgb(0,0,0); fill-rule: nonzero; opacity: 1;" transform=" matrix(1 0 0 1 0 0) " stroke-linecap="round"/>
	<path d="M 57.134 32.635 v -4.958 c 0 -1.657 -1.343 -3 -3 -3 s -3 1.343 -3 3 v 4.958 c 0 1.657 1.343 3 3 3 S 57.134 34.292 57.134 32.635 z" style="stroke: none; stroke-width: 1; stroke-dasharray: none; stroke-linecap: butt; stroke-linejoin: miter; stroke-miterlimit: 10; fill: rgb(0,0,0); fill-rule: nonzero; opacity: 1;" transform=" matrix(1 0 0 1 0 0) " stroke-linecap="round"/>
</g>
</svg>
